<?xml version="1.0" standalone="no"?><!DOCTYPE svg PUBLIC "-//W3C//DTD SVG 1.1//EN" "http://www.w3.org/Graphics/SVG/1.1/DTD/svg11.dtd"><svg t="1704613629459" class="icon" viewBox="0 0 1024 1024" version="1.1" xmlns="http://www.w3.org/2000/svg" p-id="4474" xmlns:xlink="http://www.w3.org/1999/xlink" width="200" height="200"><path d="M518.898165 0l201.569765 98.289257v326.79898L572.074189 499.637054a63.990401 63.990401 0 0 1 45.497175 61.302805v164.967255l52.856072-67.957806 4.351347-4.6713a35.194721 35.194721 0 0 1 49.40059 3.19952l89.522572 103.152527 39.610058-26.939959 5.759136-2.239664a34.810778 34.810778 0 0 1 40.313953 16.637505l120.685897 228.125781 2.303655 5.503174a32.699095 32.699095 0 0 1-17.277409 39.034145l-5.759136 2.239664a34.810778 34.810778 0 0 1-40.313953-16.637504l-105.136229-198.690196-267.863821 188.451732a102.576614 102.576614 0 0 1-125.93311 13.118032l-0.639904-0.255962-5.759136-2.175673-283.73344-198.690197-105.072239 198.690197a34.810778 34.810778 0 0 1-40.441934 16.637504l-5.759136-2.239664a32.699095 32.699095 0 0 1-17.277408-39.034145l2.367645-5.503174 120.685897-228.061791a34.810778 34.810778 0 0 1 40.313953-16.701495l5.759136 2.239664 46.137079 31.291307 95.985602-110.447433a35.194721 35.194721 0 0 1 49.464581-3.19952l4.287357 4.607309 45.305204 58.295255V560.939859a63.990401 63.990401 0 0 1 37.882318-58.423236l-140.778884-62.262661V98.161276L518.898165 0z m-4.223366 563.179523a34.298855 34.298855 0 0 0-33.914913 28.795681l-0.383942 5.503174v325.775134a34.298855 34.298855 0 0 0 68.149777 5.567165l0.447933-5.567165v-325.711143a34.298855 34.298855 0 0 0-34.298855-34.362846z m-177.253412 165.351197l-64.438334 74.164876 138.73119 94.321851v-72.885067l-74.292856-95.60166z m361.993701 2.559616l-81.26781 104.560316-0.575914 0.575914v57.079438l139.883018-95.345698-58.039294-66.86997zM377.415388 190.499425v211.040344l104.368344 48.952657-104.368344-259.993001z m274.454831-3.647453l-113.902914 262.104685 113.902914-60.662901V186.851972z m-30.971354-31.547268H407.426886l102.512623 255.321702 110.959356-255.321702zM518.194271 66.230065l-99.697046 49.3366h195.170725l-95.473679-49.272609z" fill="#4E2323" p-id="4475"></path></svg>